<?xml version="1.0" encoding="UTF-8"?>
<svg width="200" height="200" viewBox="0 0 200 200" xmlns="http://www.w3.org/2000/svg">
  <defs>
    <pattern id="floral" x="0" y="0" width="100" height="100" patternUnits="userSpaceOnUse">
      <g fill="#333333" opacity="0.1">
        <!-- Flower center -->
        <circle cx="50" cy="50" r="4"/>
        <!-- Petals -->
        <path d="M50 46C52 42 54 40 58 38C62 36 65 36 68 38C71 40 72 43 71 47C70 51 67 54 63 56C59 58 55 58 52 56C49 54 48 50 50 46Z"/>
        <path d="M54 50C58 48 62 48 66 50C70 52 72 55 72 59C72 63 70 66 66 68C62 70 58 70 54 68C50 66 48 63 48 59C48 55 50 52 54 50Z" transform="rotate(72 50 50)"/>
        <path d="M54 50C58 48 62 48 66 50C70 52 72 55 72 59C72 63 70 66 66 68C62 70 58 70 54 68C50 66 48 63 48 59C48 55 50 52 54 50Z" transform="rotate(144 50 50)"/>
        <path d="M54 50C58 48 62 48 66 50C70 52 72 55 72 59C72 63 70 66 66 68C62 70 58 70 54 68C50 66 48 63 48 59C48 55 50 52 54 50Z" transform="rotate(216 50 50)"/>
        <path d="M54 50C58 48 62 48 66 50C70 52 72 55 72 59C72 63 70 66 66 68C62 70 58 70 54 68C50 66 48 63 48 59C48 55 50 52 54 50Z" transform="rotate(288 50 50)"/>
        <!-- Leaves -->
        <path d="M85 50C88 47 92 46 96 47C100 48 103 51 104 55C105 59 104 63 101 66C98 69 94 70 90 69C86 68 83 65 82 61C81 57 82 53 85 50Z" transform="rotate(30 50 50)"/>
        <path d="M85 50C88 47 92 46 96 47C100 48 103 51 104 55C105 59 104 63 101 66C98 69 94 70 90 69C86 68 83 65 82 61C81 57 82 53 85 50Z" transform="rotate(210 50 50)"/>
      </g>
    </pattern>
  </defs>
  <rect width="100%" height="100%" fill="url(#floral)"/>
</svg> 