<?xml version="1.0" encoding="UTF-8"?>
<svg width="300" height="300" viewBox="0 0 300 300" fill="none" xmlns="http://www.w3.org/2000/svg">
  <g opacity="0.8" transform="scale(-1, 1) translate(-300, 0)">
    <path d="M150 75C150 75 120 45 90 45C60 45 30 75 30 105C30 135 60 165 90 165C120 165 150 135 150 105" stroke="#4A4A4A" stroke-width="2"/>
    <path d="M90 75C90 75 105 90 105 105C105 120 90 135 75 135C60 135 45 120 45 105C45 90 60 75 75 75C90 75 105 90 105 105" stroke="#4A4A4A" stroke-width="2"/>
    <path d="M120 60C120 60 135 75 135 90C135 105 120 120 105 120C90 120 75 105 75 90C75 75 90 60 105 60C120 60 135 75 135 90" stroke="#4A4A4A" stroke-width="2"/>
    <path d="M60 90C60 90 75 105 75 120C75 135 60 150 45 150C30 150 15 135 15 120C15 105 30 90 45 90C60 90 75 105 75 120" stroke="#4A4A4A" stroke-width="2"/>
    <!-- Leaves -->
    <path d="M75 90C75 90 90 105 90 120C90 135 75 150 60 150" stroke="#4A4A4A" stroke-width="2"/>
    <path d="M105 60C105 60 120 75 120 90C120 105 105 120 90 120" stroke="#4A4A4A" stroke-width="2"/>
    <path d="M45 120C45 120 60 135 60 150C60 165 45 180 30 180" stroke="#4A4A4A" stroke-width="2"/>
  </g>
</svg> 